<svg width="160" height="99" viewBox="0 0 160 99" fill="none" xmlns="http://www.w3.org/2000/svg">
<path d="M150.625 34.2416H147.5V20.4266C147.5 13.6547 141.891 8.14666 135 8.14666C132.59 8.14666 130.337 8.81942 128.428 9.98506C127.15 4.53942 122.172 0.47168 116.25 0.47168H116.246C109.357 0.47168 103.746 5.97968 103.746 12.7517V34.2416H56.2537V12.7517C56.2537 5.97968 50.6433 0.47168 43.75 0.47168C37.8284 0.47168 32.8503 4.53942 31.5723 9.98506C29.6631 8.81942 27.4097 8.14666 25 8.14666C18.1091 8.14666 12.5 13.6547 12.5 20.4266V34.2416H9.375C4.20654 34.2416 0 38.3741 0 43.4516V55.7316C0 60.809 4.20654 64.9415 9.375 64.9415H12.5V78.7565C12.5 85.5285 18.1091 91.0365 25 91.0365C27.4097 91.0365 29.6631 90.3637 31.5723 89.1981C32.8503 94.6437 37.8284 98.7115 43.75 98.7115H43.7537C50.6433 98.7115 56.2537 93.2035 56.2537 86.4315V64.9415H103.746V86.4315C103.746 93.2035 109.357 98.7115 116.25 98.7115C122.172 98.7115 127.15 94.6437 128.428 89.1981C130.337 90.3637 132.59 91.0365 135 91.0365C141.891 91.0365 147.5 85.5285 147.5 78.7565V64.9415H150.625C155.793 64.9415 160 60.809 160 55.7316V43.4516C160 38.3741 155.793 34.2416 150.625 34.2416ZM12.5 58.8015H9.375C7.65259 58.8015 6.25 57.4236 6.25 55.7316V43.4516C6.25 41.7595 7.65259 40.3816 9.375 40.3816H12.5V58.8015ZM31.25 78.7565C31.25 80.451 30.5505 81.986 29.4189 83.0977C28.2874 84.2093 26.7249 84.8965 25 84.8965C21.5527 84.8965 18.75 82.1431 18.75 78.7565V20.4266C18.75 17.04 21.5527 14.2866 25 14.2866C28.4473 14.2866 31.25 17.04 31.25 20.4266V78.7565ZM50.0037 86.4315C50.0037 89.8181 47.1973 92.5715 43.7537 92.5715H43.75C40.3064 92.5715 37.5 89.8181 37.5 86.4315V12.7517C37.5 9.36507 40.3064 6.61167 43.7537 6.61167C47.1973 6.61167 50.0037 9.36507 50.0037 12.7517V86.4315ZM103.728 46.5216H81.875C80.1501 46.5216 78.75 47.8971 78.75 49.5916C78.75 51.2861 80.1501 52.6616 81.875 52.6616H103.728V58.8015H56.2378V40.3816H103.728V46.5216ZM122.5 86.4315C122.5 89.8181 119.694 92.5715 116.246 92.5715C112.803 92.5715 109.996 89.8181 109.996 86.4315V49.7487C109.994 49.8158 109.988 49.883 109.978 49.9477V49.2354C109.988 49.3002 109.994 49.3673 109.996 49.4345V12.7517C109.996 9.36507 112.803 6.61167 116.246 6.61167H116.25C119.694 6.61167 122.5 9.36507 122.5 12.7517V86.4315ZM141.25 78.7565C141.25 82.1431 138.447 84.8965 135 84.8965C131.553 84.8965 128.75 82.1431 128.75 78.7565V20.4266C128.75 17.04 131.553 14.2866 135 14.2866C138.447 14.2866 141.25 17.04 141.25 20.4266V78.7565ZM153.75 55.7316C153.75 57.4236 152.347 58.8015 150.625 58.8015H147.5V40.3816H150.625C152.347 40.3816 153.75 41.7595 153.75 43.4516V55.7316Z" fill="#AB4E68"/>
</svg>
