<svg width="58" height="58" viewBox="0 0 58 58" fill="none" xmlns="http://www.w3.org/2000/svg">
<path d="M53.1674 40.8902V48.1402C53.1702 48.8132 53.0323 49.4794 52.7627 50.0961C52.493 50.7128 52.0976 51.2663 51.6016 51.7213C51.1057 52.1763 50.5202 52.5227 49.8826 52.7384C49.245 52.954 48.5694 53.0341 47.8991 52.9735C40.4626 52.1655 33.3194 49.6243 27.0433 45.5543C21.2042 41.8439 16.2537 36.8934 12.5433 31.0543C8.45905 24.7497 5.91736 17.5717 5.12411 10.1018C5.06372 9.43353 5.14314 8.75999 5.35732 8.12408C5.5715 7.48817 5.91574 6.90382 6.36813 6.40824C6.82051 5.91266 7.37114 5.5167 7.98494 5.24558C8.59874 4.97446 9.26226 4.83412 9.93328 4.83349H17.1833C18.3561 4.82194 19.4931 5.23726 20.3824 6.00202C21.2716 6.76679 21.8525 7.82882 22.0166 8.99015C22.3226 11.3103 22.8901 13.5884 23.7083 15.781C24.0334 16.646 24.1038 17.586 23.911 18.4898C23.7183 19.3935 23.2705 20.2231 22.6208 20.8802L19.5516 23.9493C22.9919 29.9996 28.0014 35.0091 34.0516 38.4493L37.1208 35.3802C37.7778 34.7304 38.6074 34.2826 39.5111 34.0899C40.4149 33.8971 41.355 33.9675 42.2199 34.2927C44.4125 35.1108 46.6906 35.6783 49.0108 35.9843C50.1847 36.1499 51.2568 36.7412 52.0232 37.6458C52.7896 38.5503 53.1968 39.705 53.1674 40.8902Z" fill="#AB4E68" stroke="black" stroke-width="2" stroke-linecap="round" stroke-linejoin="round"/>
</svg>
