<svg width="58" height="58" viewBox="0 0 58 58" fill="none" xmlns="http://www.w3.org/2000/svg">
<path d="M50.75 24.1667C50.75 41.0834 29 55.5834 29 55.5834C29 55.5834 7.25 41.0834 7.25 24.1667C7.25 18.3983 9.54151 12.8661 13.6204 8.78717C17.6993 4.70826 23.2315 2.41675 29 2.41675C34.7685 2.41675 40.3007 4.70826 44.3796 8.78717C48.4585 12.8661 50.75 18.3983 50.75 24.1667Z" fill="#AB4E68" stroke="black" stroke-width="2" stroke-linecap="round" stroke-linejoin="round"/>
<path d="M29 31.4167C33.0041 31.4167 36.25 28.1708 36.25 24.1667C36.25 20.1627 33.0041 16.9167 29 16.9167C24.9959 16.9167 21.75 20.1627 21.75 24.1667C21.75 28.1708 24.9959 31.4167 29 31.4167Z" fill="#E7DFDD"/>
</svg>
