<svg width="60" height="60" viewBox="0 0 60 60" fill="none" xmlns="http://www.w3.org/2000/svg">
<path d="M49.7467 0H10.2533C4.59058 0 0 4.59057 0 10.2533V49.7467C0 55.4094 4.59058 60 10.2533 60H49.7467C55.4094 60 60 55.4094 60 49.7467V10.2533C60 4.59057 55.4094 0 49.7467 0Z" fill="#AB4E68"/>
<path d="M29.9956 52.9711C25.9725 52.9729 22.0202 51.912 18.5386 49.896L9.59002 52.9711L11.4263 43.491C8.55887 39.5785 7.01938 34.8507 7.0333 30C7.03243 25.4555 8.37928 21.0128 10.9035 17.2338C13.4278 13.4548 17.016 10.5093 21.2144 8.76978C25.4128 7.03027 30.0328 6.57491 34.4901 7.46128C38.9473 8.34766 43.0415 10.536 46.255 13.7494C49.4684 16.9629 51.6567 21.0571 52.5431 25.5143C53.4295 29.9716 52.9741 34.5915 51.2346 38.79C49.4951 42.9884 46.5496 46.5766 42.7706 49.1009C38.9916 51.6251 34.5489 52.972 30.0044 52.9711H29.9956ZM18.9516 46.1312L19.6413 46.5705C23.7947 49.1682 28.7709 50.115 33.5881 49.224C38.4053 48.333 42.7136 45.669 45.6631 41.7575C48.6126 37.8459 49.9889 32.971 49.5207 28.0946C49.0524 23.2181 46.7735 18.6942 43.1336 15.4154C39.4937 12.1367 34.7571 10.3411 29.8584 10.3831C24.9597 10.4251 20.2546 12.3015 16.6714 15.6422C13.0882 18.9829 10.8872 23.5451 10.5025 28.4289C10.1179 33.3127 11.5776 38.1633 14.5937 42.0237L15.0769 42.6343L14.0709 47.8181L18.9516 46.1312Z" fill="white"/>
<path d="M18.3977 21.1698C18.3977 21.1698 19.7464 18.8151 20.8447 18.6789C21.9429 18.5427 23.3575 18.5427 23.7397 19.2632C24.1219 19.9837 25.8263 24.157 25.8263 24.157C25.9087 24.3894 25.9373 24.6375 25.9099 24.8825C25.8825 25.1275 25.7998 25.3631 25.6682 25.5716C25.2299 26.1818 24.7437 26.7562 24.2141 27.2893C24.0554 27.5034 23.9697 27.7629 23.9697 28.0295C23.9697 28.296 24.0554 28.5555 24.2141 28.7697C25.1616 30.1877 26.2428 31.5117 27.443 32.7234C29.2397 34.5202 32.7146 35.7985 32.7146 35.7985C32.859 35.8152 33.0053 35.802 33.1444 35.7597C33.2834 35.7173 33.4123 35.6468 33.5229 35.5525C33.8392 35.2362 35.5437 33.1056 35.5437 33.1056C35.7183 32.8996 35.9575 32.7588 36.2224 32.7061C36.4872 32.6535 36.7621 32.6921 37.0022 32.8157C37.9116 33.2286 41.8345 35.1923 41.8345 35.1923C41.9895 35.2755 42.1149 35.4046 42.1935 35.562C42.2722 35.7193 42.3002 35.897 42.2738 36.0709C42.2738 36.765 41.9927 38.4695 41.3952 39.045C40.7978 39.6205 39.1372 41.3909 36.6112 41.3909C34.0852 41.3909 28.058 39.3349 24.8511 36.1192C21.6442 32.9035 18.7887 29.6527 18.1166 26.6918C17.4445 23.7309 17.5675 22.391 18.3977 21.1698Z" fill="white"/>
</svg>
