<svg width="60" height="60" viewBox="0 0 60 60" fill="none" xmlns="http://www.w3.org/2000/svg">
<path d="M49.7467 0H10.2533C4.59057 0 0 4.59057 0 10.2533V49.7467C0 55.4094 4.59057 60 10.2533 60H49.7467C55.4094 60 60 55.4094 60 49.7467V10.2533C60 4.59057 55.4094 0 49.7467 0Z" fill="#AB4E68"/>
<path d="M41.1675 59.9996V36.9538H48.8993L50.059 27.9744H41.1675V22.2635C41.1675 19.6628 41.8924 17.8704 45.6177 17.8704H50.3709V9.84877C48.0696 9.60806 45.757 9.49075 43.4431 9.49733C36.59 9.49733 31.8982 13.6795 31.8982 21.3585V27.9788H24.1445V36.9538H31.8982V59.9908L41.1675 59.9996Z" fill="white"/>
</svg>
