<svg width="60" height="60" viewBox="0 0 60 60" fill="none" xmlns="http://www.w3.org/2000/svg">
<path d="M49.7467 0H10.2533C4.59057 0 0 4.59057 0 10.2533V49.7467C0 55.4094 4.59057 60 10.2533 60H49.7467C55.4094 60 60 55.4094 60 49.7467V10.2533C60 4.59057 55.4094 0 49.7467 0Z" fill="#AB4E68"/>
<path d="M49.3251 17.8004C48.797 17.9525 48.2492 18.0251 47.6997 18.0157L47.7304 17.84C48.5739 17.1635 50.7133 15.0812 50.9944 14.1059C51.1175 13.6666 50.9725 13.5392 50.9725 13.526L48.2444 14.6858L45.9556 15.7182C45.0928 14.8367 44.0599 14.1396 42.9197 13.6692C41.7794 13.1987 40.5555 12.9647 39.3222 12.9813C34.5733 12.9813 30.7206 16.3464 30.7206 20.5022C30.7168 21.4583 30.8379 22.4109 31.0808 23.3357C31.0808 23.5553 31.0808 23.1204 31.0808 23.3357C28.0057 23.2522 24.1003 22.0178 20.6079 20.2298C13.7196 16.7417 13.2891 14.3256 13.2891 14.3256C12.204 15.4721 11.6461 19.2765 12.7443 22.2594C13.4472 24.1659 15.859 25.8792 15.859 25.8792C15.1127 25.8724 14.3719 25.7509 13.6625 25.519C13.103 25.3603 12.5763 25.1029 12.1073 24.759C11.4352 26.3976 12.7839 29.3234 15.1122 31.4232C16.4696 32.6489 18.9517 33.4177 18.9517 33.4177L15.077 33.5275C14.8574 37.2967 22.9845 39.5328 22.9845 39.5328C20.6871 41.3881 17.8363 42.4239 14.8837 42.4761C13.3769 42.4783 11.8777 42.2607 10.4336 41.8303C14.3434 45.0504 19.369 47.2733 24.8339 46.9878C39.3309 46.2278 47.5152 33.7647 47.9061 21.5082V21.5301C47.9061 21.5301 48.5827 21.1919 50.0368 19.7422C50.9574 18.7993 51.7491 17.7386 52.3914 16.588C52.3914 16.588 50.2388 17.55 49.3251 17.8004Z" fill="white"/>
</svg>
